<mxfile host="app.diagrams.net" modified="2022-04-08T21:27:15.192Z" agent="5.0 (Windows NT 10.0; Win64; x64) AppleWebKit/537.36 (KHTML, like Gecko) Chrome/100.0.4896.75 Safari/537.36" etag="qw7hls_oDB6EACYtL8K_" version="17.4.1" type="github">
  <diagram id="8uOcoS6YbixC-TZDNY_1" name="Page-1">
    <mxGraphModel dx="1422" dy="794" grid="1" gridSize="10" guides="1" tooltips="1" connect="1" arrows="1" fold="1" page="1" pageScale="1" pageWidth="827" pageHeight="1169" math="0" shadow="0">
      <root>
        <mxCell id="0" />
        <mxCell id="1" parent="0" />
        <mxCell id="ouzhkOdVKsLuW9nE72t9-23" style="edgeStyle=orthogonalEdgeStyle;rounded=0;orthogonalLoop=1;jettySize=auto;html=1;fontSize=12;" edge="1" parent="1" source="ouzhkOdVKsLuW9nE72t9-2" target="ouzhkOdVKsLuW9nE72t9-25">
          <mxGeometry relative="1" as="geometry">
            <mxPoint x="530" y="275" as="targetPoint" />
          </mxGeometry>
        </mxCell>
        <mxCell id="ouzhkOdVKsLuW9nE72t9-24" value="Recebe dados de cadastro" style="edgeLabel;html=1;align=center;verticalAlign=middle;resizable=0;points=[];fontSize=12;" vertex="1" connectable="0" parent="ouzhkOdVKsLuW9nE72t9-23">
          <mxGeometry x="0.1958" y="-1" relative="1" as="geometry">
            <mxPoint x="-24" y="-11" as="offset" />
          </mxGeometry>
        </mxCell>
        <mxCell id="ouzhkOdVKsLuW9nE72t9-2" value="Instanciar Cliente" style="swimlane;fontStyle=0;childLayout=stackLayout;horizontal=1;startSize=30;horizontalStack=0;resizeParent=1;resizeParentMax=0;resizeLast=0;collapsible=1;marginBottom=0;rounded=1;fontSize=13;" vertex="1" parent="1">
          <mxGeometry x="324" y="175" width="180" height="80" as="geometry" />
        </mxCell>
        <mxCell id="ouzhkOdVKsLuW9nE72t9-3" value="new()" style="text;strokeColor=none;fillColor=none;align=left;verticalAlign=top;spacingLeft=4;spacingRight=4;overflow=hidden;points=[[0,0.5],[1,0.5]];portConstraint=eastwest;rotatable=0;fontSize=13;" vertex="1" parent="ouzhkOdVKsLuW9nE72t9-2">
          <mxGeometry y="30" width="180" height="50" as="geometry" />
        </mxCell>
        <mxCell id="ouzhkOdVKsLuW9nE72t9-10" value="" style="group" vertex="1" connectable="0" parent="1">
          <mxGeometry x="190" y="180" width="60" height="50" as="geometry" />
        </mxCell>
        <mxCell id="ouzhkOdVKsLuW9nE72t9-7" value="" style="ellipse;html=1;shape=startState;fillColor=#000000;strokeColor=#ff0000;rounded=1;" vertex="1" parent="ouzhkOdVKsLuW9nE72t9-10">
          <mxGeometry x="15" y="20" width="30" height="30" as="geometry" />
        </mxCell>
        <mxCell id="ouzhkOdVKsLuW9nE72t9-9" value="Start" style="text;html=1;strokeColor=none;fillColor=none;align=center;verticalAlign=middle;whiteSpace=wrap;rounded=0;" vertex="1" parent="ouzhkOdVKsLuW9nE72t9-10">
          <mxGeometry width="60" height="30" as="geometry" />
        </mxCell>
        <mxCell id="ouzhkOdVKsLuW9nE72t9-14" value="" style="group" vertex="1" connectable="0" parent="1">
          <mxGeometry x="280" y="320" width="60" height="50" as="geometry" />
        </mxCell>
        <mxCell id="ouzhkOdVKsLuW9nE72t9-6" value="" style="ellipse;html=1;shape=endState;fillColor=#000000;strokeColor=#ff0000;rounded=1;" vertex="1" parent="ouzhkOdVKsLuW9nE72t9-14">
          <mxGeometry x="15" y="20" width="30" height="30" as="geometry" />
        </mxCell>
        <mxCell id="ouzhkOdVKsLuW9nE72t9-13" value="End" style="text;html=1;strokeColor=none;fillColor=none;align=center;verticalAlign=middle;whiteSpace=wrap;rounded=0;" vertex="1" parent="ouzhkOdVKsLuW9nE72t9-14">
          <mxGeometry width="60" height="30" as="geometry" />
        </mxCell>
        <mxCell id="ouzhkOdVKsLuW9nE72t9-15" style="edgeStyle=orthogonalEdgeStyle;rounded=0;orthogonalLoop=1;jettySize=auto;html=1;" edge="1" parent="1" source="ouzhkOdVKsLuW9nE72t9-7" target="ouzhkOdVKsLuW9nE72t9-2">
          <mxGeometry relative="1" as="geometry" />
        </mxCell>
        <mxCell id="ouzhkOdVKsLuW9nE72t9-32" style="edgeStyle=orthogonalEdgeStyle;rounded=0;orthogonalLoop=1;jettySize=auto;html=1;fontSize=12;curved=1;" edge="1" parent="1" source="ouzhkOdVKsLuW9nE72t9-25" target="ouzhkOdVKsLuW9nE72t9-27">
          <mxGeometry relative="1" as="geometry">
            <Array as="points">
              <mxPoint x="720" y="355" />
            </Array>
          </mxGeometry>
        </mxCell>
        <mxCell id="ouzhkOdVKsLuW9nE72t9-36" value="Cliente existe" style="edgeLabel;html=1;align=center;verticalAlign=middle;resizable=0;points=[];fontSize=12;" vertex="1" connectable="0" parent="ouzhkOdVKsLuW9nE72t9-32">
          <mxGeometry x="-0.2045" y="10" relative="1" as="geometry">
            <mxPoint x="-30" y="-23" as="offset" />
          </mxGeometry>
        </mxCell>
        <mxCell id="ouzhkOdVKsLuW9nE72t9-33" style="edgeStyle=orthogonalEdgeStyle;curved=1;rounded=0;orthogonalLoop=1;jettySize=auto;html=1;fontSize=12;" edge="1" parent="1" source="ouzhkOdVKsLuW9nE72t9-25" target="ouzhkOdVKsLuW9nE72t9-29">
          <mxGeometry relative="1" as="geometry">
            <Array as="points">
              <mxPoint x="800" y="355" />
            </Array>
          </mxGeometry>
        </mxCell>
        <mxCell id="ouzhkOdVKsLuW9nE72t9-37" value="Cliente não existe" style="edgeLabel;html=1;align=center;verticalAlign=middle;resizable=0;points=[];fontSize=12;" vertex="1" connectable="0" parent="ouzhkOdVKsLuW9nE72t9-33">
          <mxGeometry x="-0.5263" y="-9" relative="1" as="geometry">
            <mxPoint x="19" y="-7" as="offset" />
          </mxGeometry>
        </mxCell>
        <mxCell id="ouzhkOdVKsLuW9nE72t9-25" value="Verificação" style="swimlane;fontStyle=0;childLayout=stackLayout;horizontal=1;startSize=30;horizontalStack=0;resizeParent=1;resizeParentMax=0;resizeLast=0;collapsible=1;marginBottom=0;rounded=1;fontSize=13;" vertex="1" parent="1">
          <mxGeometry x="670" y="175" width="180" height="80" as="geometry" />
        </mxCell>
        <mxCell id="ouzhkOdVKsLuW9nE72t9-26" value="cadastrar()&#xa;verificarExiste()" style="text;strokeColor=none;fillColor=none;align=left;verticalAlign=top;spacingLeft=4;spacingRight=4;overflow=hidden;points=[[0,0.5],[1,0.5]];portConstraint=eastwest;rotatable=0;fontSize=13;" vertex="1" parent="ouzhkOdVKsLuW9nE72t9-25">
          <mxGeometry y="30" width="180" height="50" as="geometry" />
        </mxCell>
        <mxCell id="ouzhkOdVKsLuW9nE72t9-34" style="rounded=0;orthogonalLoop=1;jettySize=auto;html=1;fontSize=12;" edge="1" parent="1" source="ouzhkOdVKsLuW9nE72t9-27" target="ouzhkOdVKsLuW9nE72t9-6">
          <mxGeometry relative="1" as="geometry" />
        </mxCell>
        <mxCell id="ouzhkOdVKsLuW9nE72t9-27" value="Recusado" style="swimlane;fontStyle=0;childLayout=stackLayout;horizontal=1;startSize=30;horizontalStack=0;resizeParent=1;resizeParentMax=0;resizeLast=0;collapsible=1;marginBottom=0;rounded=1;fontSize=13;" vertex="1" parent="1">
          <mxGeometry x="430" y="315" width="180" height="80" as="geometry" />
        </mxCell>
        <mxCell id="ouzhkOdVKsLuW9nE72t9-28" value="mensagem de erro&#xa;kill()" style="text;strokeColor=none;fillColor=none;align=left;verticalAlign=top;spacingLeft=4;spacingRight=4;overflow=hidden;points=[[0,0.5],[1,0.5]];portConstraint=eastwest;rotatable=0;fontSize=13;" vertex="1" parent="ouzhkOdVKsLuW9nE72t9-27">
          <mxGeometry y="30" width="180" height="50" as="geometry" />
        </mxCell>
        <mxCell id="ouzhkOdVKsLuW9nE72t9-40" style="edgeStyle=orthogonalEdgeStyle;rounded=0;orthogonalLoop=1;jettySize=auto;html=1;fontSize=12;curved=1;" edge="1" parent="1" source="ouzhkOdVKsLuW9nE72t9-29" target="ouzhkOdVKsLuW9nE72t9-38">
          <mxGeometry relative="1" as="geometry">
            <Array as="points">
              <mxPoint x="1100" y="355" />
              <mxPoint x="1100" y="510" />
            </Array>
          </mxGeometry>
        </mxCell>
        <mxCell id="ouzhkOdVKsLuW9nE72t9-41" value="Recebe fotos" style="edgeLabel;html=1;align=center;verticalAlign=middle;resizable=0;points=[];fontSize=12;" vertex="1" connectable="0" parent="ouzhkOdVKsLuW9nE72t9-40">
          <mxGeometry x="-0.1191" y="-1" relative="1" as="geometry">
            <mxPoint x="3" y="14" as="offset" />
          </mxGeometry>
        </mxCell>
        <mxCell id="ouzhkOdVKsLuW9nE72t9-29" value="Esperando fotos" style="swimlane;fontStyle=0;childLayout=stackLayout;horizontal=1;startSize=30;horizontalStack=0;resizeParent=1;resizeParentMax=0;resizeLast=0;collapsible=1;marginBottom=0;rounded=1;fontSize=13;" vertex="1" parent="1">
          <mxGeometry x="860" y="315" width="180" height="80" as="geometry" />
        </mxCell>
        <mxCell id="ouzhkOdVKsLuW9nE72t9-30" value="wait" style="text;strokeColor=none;fillColor=none;align=left;verticalAlign=top;spacingLeft=4;spacingRight=4;overflow=hidden;points=[[0,0.5],[1,0.5]];portConstraint=eastwest;rotatable=0;fontSize=13;" vertex="1" parent="ouzhkOdVKsLuW9nE72t9-29">
          <mxGeometry y="30" width="180" height="50" as="geometry" />
        </mxCell>
        <mxCell id="ouzhkOdVKsLuW9nE72t9-44" style="edgeStyle=orthogonalEdgeStyle;curved=1;rounded=0;orthogonalLoop=1;jettySize=auto;html=1;fontSize=12;" edge="1" parent="1" source="ouzhkOdVKsLuW9nE72t9-38" target="ouzhkOdVKsLuW9nE72t9-42">
          <mxGeometry relative="1" as="geometry" />
        </mxCell>
        <mxCell id="ouzhkOdVKsLuW9nE72t9-38" value="Upload de fotos" style="swimlane;fontStyle=0;childLayout=stackLayout;horizontal=1;startSize=30;horizontalStack=0;resizeParent=1;resizeParentMax=0;resizeLast=0;collapsible=1;marginBottom=0;rounded=1;fontSize=13;" vertex="1" parent="1">
          <mxGeometry x="860" y="470" width="180" height="80" as="geometry" />
        </mxCell>
        <mxCell id="ouzhkOdVKsLuW9nE72t9-39" value="uploadFotos()" style="text;strokeColor=none;fillColor=none;align=left;verticalAlign=top;spacingLeft=4;spacingRight=4;overflow=hidden;points=[[0,0.5],[1,0.5]];portConstraint=eastwest;rotatable=0;fontSize=13;" vertex="1" parent="ouzhkOdVKsLuW9nE72t9-38">
          <mxGeometry y="30" width="180" height="50" as="geometry" />
        </mxCell>
        <mxCell id="ouzhkOdVKsLuW9nE72t9-49" style="edgeStyle=orthogonalEdgeStyle;curved=1;rounded=0;orthogonalLoop=1;jettySize=auto;html=1;fontSize=12;" edge="1" parent="1" source="ouzhkOdVKsLuW9nE72t9-42" target="ouzhkOdVKsLuW9nE72t9-27">
          <mxGeometry relative="1" as="geometry">
            <Array as="points">
              <mxPoint x="520" y="490" />
            </Array>
          </mxGeometry>
        </mxCell>
        <mxCell id="ouzhkOdVKsLuW9nE72t9-50" value="Funcionário recusa" style="edgeLabel;html=1;align=center;verticalAlign=middle;resizable=0;points=[];fontSize=12;" vertex="1" connectable="0" parent="ouzhkOdVKsLuW9nE72t9-49">
          <mxGeometry x="0.3189" y="-15" relative="1" as="geometry">
            <mxPoint x="-15" y="-28" as="offset" />
          </mxGeometry>
        </mxCell>
        <mxCell id="ouzhkOdVKsLuW9nE72t9-42" value="Aguardando aprovação" style="swimlane;fontStyle=0;childLayout=stackLayout;horizontal=1;startSize=30;horizontalStack=0;resizeParent=1;resizeParentMax=0;resizeLast=0;collapsible=1;marginBottom=0;rounded=1;fontSize=13;" vertex="1" parent="1">
          <mxGeometry x="610" y="470" width="180" height="80" as="geometry" />
        </mxCell>
        <mxCell id="ouzhkOdVKsLuW9nE72t9-43" value="wait" style="text;strokeColor=none;fillColor=none;align=left;verticalAlign=top;spacingLeft=4;spacingRight=4;overflow=hidden;points=[[0,0.5],[1,0.5]];portConstraint=eastwest;rotatable=0;fontSize=13;" vertex="1" parent="ouzhkOdVKsLuW9nE72t9-42">
          <mxGeometry y="30" width="180" height="50" as="geometry" />
        </mxCell>
        <mxCell id="ouzhkOdVKsLuW9nE72t9-53" style="edgeStyle=orthogonalEdgeStyle;curved=1;rounded=0;orthogonalLoop=1;jettySize=auto;html=1;fontSize=12;" edge="1" parent="1" source="ouzhkOdVKsLuW9nE72t9-45" target="ouzhkOdVKsLuW9nE72t9-47">
          <mxGeometry relative="1" as="geometry" />
        </mxCell>
        <mxCell id="ouzhkOdVKsLuW9nE72t9-45" value="Cadastrando" style="swimlane;fontStyle=0;childLayout=stackLayout;horizontal=1;startSize=30;horizontalStack=0;resizeParent=1;resizeParentMax=0;resizeLast=0;collapsible=1;marginBottom=0;rounded=1;fontSize=13;" vertex="1" parent="1">
          <mxGeometry x="350" y="585" width="180" height="80" as="geometry" />
        </mxCell>
        <mxCell id="ouzhkOdVKsLuW9nE72t9-46" value="confirmaCadastro()" style="text;strokeColor=none;fillColor=none;align=left;verticalAlign=top;spacingLeft=4;spacingRight=4;overflow=hidden;points=[[0,0.5],[1,0.5]];portConstraint=eastwest;rotatable=0;fontSize=13;" vertex="1" parent="ouzhkOdVKsLuW9nE72t9-45">
          <mxGeometry y="30" width="180" height="50" as="geometry" />
        </mxCell>
        <mxCell id="ouzhkOdVKsLuW9nE72t9-54" style="edgeStyle=orthogonalEdgeStyle;curved=1;rounded=0;orthogonalLoop=1;jettySize=auto;html=1;fontSize=12;entryX=0;entryY=0.5;entryDx=0;entryDy=0;" edge="1" parent="1" source="ouzhkOdVKsLuW9nE72t9-47" target="ouzhkOdVKsLuW9nE72t9-6">
          <mxGeometry relative="1" as="geometry" />
        </mxCell>
        <mxCell id="ouzhkOdVKsLuW9nE72t9-47" value="Finalizar" style="swimlane;fontStyle=0;childLayout=stackLayout;horizontal=1;startSize=30;horizontalStack=0;resizeParent=1;resizeParentMax=0;resizeLast=0;collapsible=1;marginBottom=0;rounded=1;fontSize=13;" vertex="1" parent="1">
          <mxGeometry x="130" y="450" width="180" height="80" as="geometry" />
        </mxCell>
        <mxCell id="ouzhkOdVKsLuW9nE72t9-48" value="kill()" style="text;strokeColor=none;fillColor=none;align=left;verticalAlign=top;spacingLeft=4;spacingRight=4;overflow=hidden;points=[[0,0.5],[1,0.5]];portConstraint=eastwest;rotatable=0;fontSize=13;" vertex="1" parent="ouzhkOdVKsLuW9nE72t9-47">
          <mxGeometry y="30" width="180" height="50" as="geometry" />
        </mxCell>
        <mxCell id="ouzhkOdVKsLuW9nE72t9-51" style="edgeStyle=orthogonalEdgeStyle;curved=1;rounded=0;orthogonalLoop=1;jettySize=auto;html=1;fontSize=12;" edge="1" parent="1" source="ouzhkOdVKsLuW9nE72t9-43" target="ouzhkOdVKsLuW9nE72t9-45">
          <mxGeometry relative="1" as="geometry">
            <Array as="points">
              <mxPoint x="460" y="525" />
            </Array>
          </mxGeometry>
        </mxCell>
        <mxCell id="ouzhkOdVKsLuW9nE72t9-52" value="Funcionário aprova" style="edgeLabel;html=1;align=center;verticalAlign=middle;resizable=0;points=[];fontSize=12;" vertex="1" connectable="0" parent="ouzhkOdVKsLuW9nE72t9-51">
          <mxGeometry x="-0.4683" y="3" relative="1" as="geometry">
            <mxPoint x="-34" y="12" as="offset" />
          </mxGeometry>
        </mxCell>
      </root>
    </mxGraphModel>
  </diagram>
</mxfile>
